<?xml version="1.0" standalone="no"?>
<!DOCTYPE svg PUBLIC "-//W3C//DTD SVG 20010904//EN" "http://www.w3.org/TR/2001/REC-SVG-20010904/DTD/svg10.dtd">

<svg version="1.0" xmlns="http://www.w3.org/2000/svg" width="700.000000pt" height="700.000000pt"
  viewBox="0 0 700.000000 700.000000" preserveAspectRatio="xMidYMid meet">

  <g transform="translate(0.000000,700.000000) scale(0.100000,-0.100000)" fill="#000000" stroke="none">
    <path d="M4165 6839 c-54 -20 -94 -59 -155 -149 -39 -58 -210 -339 -210 -346
      0 -2 -17 -32 -38 -66 -21 -35 -41 -70 -45 -78 -4 -8 -17 -31 -28 -50 -12 -19
      -65 -111 -119 -205 -144 -251 -210 -366 -235 -405 -12 -19 -24 -40 -26 -45
      -11 -28 -92 -155 -99 -155 -4 0 1 35 11 78 10 43 20 89 23 103 6 31 10 47 36
      149 11 47 22 92 24 100 2 8 25 100 50 204 71 288 107 465 109 531 2 57 -1 64
      -45 125 -82 115 -125 140 -231 134 -209 -12 -246 -57 -389 -474 -27 -80 -51
      -149 -52 -155 -1 -5 -18 -59 -38 -120 -20 -60 -89 -272 -153 -470 -154 -476
      -183 -552 -186 -478 0 15 -3 57 -5 93 -2 36 -4 281 -5 545 l-2 480 -77 77
      c-80 80 -137 108 -217 108 -73 0 -191 -67 -242 -139 -40 -56 -50 -178 -76
      -991 -3 -85 -7 -213 -10 -285 -3 -71 -7 -200 -10 -285 -17 -501 -21 -533 -85
      -730 -66 -202 -94 -383 -94 -620 0 -828 498 -1564 1269 -1875 246 -99 420
      -129 740 -130 249 0 307 7 494 56 427 113 790 350 1067 699 193 243 354 580
      394 825 5 33 12 70 14 82 12 57 21 224 21 373 0 151 -2 169 -23 211 -69 141
      -236 220 -385 183 -89 -23 -172 -87 -212 -164 -18 -35 -34 -111 -40 -195 -7
      -85 -14 -162 -20 -220 -16 -144 -69 -334 -121 -438 -101 -199 -275 -395 -465
      -522 -294 -197 -609 -261 -978 -199 -162 27 -426 151 -567 265 -76 62 -247
      245 -294 314 -260 386 -294 891 -87 1315 112 231 310 447 525 573 338 198 728
      235 1117 105 226 -75 476 -258 633 -464 84 -110 174 -154 304 -149 140 7 246
      90 298 233 38 104 18 184 -88 342 -54 80 -214 251 -312 334 -175 147 -579 359
      -745 392 -91 18 -92 20 -55 99 79 173 100 218 100 221 0 2 48 102 106 221 59
      120 121 250 139 288 18 39 51 108 73 155 82 176 122 279 122 318 0 100 -82
      219 -182 262 -70 30 -157 34 -223 9z" />
    <path d="M3418 4442 c-43 -2 -78 -5 -78 -8 0 -3 28 -53 61 -112 34 -59 61
      -118 61 -132 -1 -20 -21 -118 -77 -381 -2 -9 -6 -33 -9 -54 -4 -20 -8 -40 -10
      -44 -2 -3 -7 -22 -10 -41 -3 -19 -22 -114 -41 -210 -20 -96 -39 -186 -41 -200
      -3 -13 -12 -56 -20 -95 -21 -98 -23 -103 -35 -165 -17 -90 -19 -99 -50 -245
      -16 -77 -32 -154 -35 -171 -4 -28 4 -39 122 -150 70 -65 166 -156 213 -201
      l85 -81 70 67 c39 37 107 101 150 142 190 178 188 176 182 222 -2 23 -9 62
      -14 87 -6 25 -13 61 -16 80 -3 19 -12 71 -20 115 -18 97 -21 110 -46 255 -11
      63 -22 125 -24 136 -2 12 -7 37 -10 55 -6 38 -10 59 -31 174 -8 44 -17 98 -21
      120 -3 22 -10 59 -15 83 -5 24 -12 62 -14 85 -3 23 -8 49 -10 57 -2 8 -7 29
      -10 45 -2 17 -7 39 -9 50 -2 11 -7 40 -11 65 -4 25 -9 54 -11 65 -3 11 -10 51
      -16 88 l-12 68 51 102 c28 56 53 109 55 117 2 12 -19 15 -137 15 -77 0 -175
      -1 -217 -3z" />
    <path d="M3179 1086 c-1 -1 -3 -139 -4 -308 -1 -248 1 -308 12 -309 60 -6 83
      1 93 26 l10 26 22 -22 c45 -41 123 -52 178 -24 151 78 125 417 -34 440 -57 9
      -100 -1 -135 -31 l-29 -24 3 103 c1 56 0 107 -2 114 -3 7 -26 11 -59 11 -30
      -1 -55 -2 -55 -2z m264 -298 c29 -38 29 -140 1 -189 -37 -64 -126 -46 -140 28
      -14 72 -8 135 17 167 29 37 92 34 122 -6z" />
    <path d="M3692 777 l3 -311 33 1 c17 1 38 2 46 2 8 1 18 10 21 21 7 21 35 28
      35 9 0 -20 72 -41 123 -36 61 5 95 31 127 93 20 41 24 64 24 135 0 73 -4 95
      -25 135 -31 61 -72 89 -132 93 -49 2 -77 -8 -115 -43 l-23 -21 1 95 c3 152 9
      138 -60 138 l-60 0 2 -311z m255 33 c12 0 34 -73 34 -113 0 -90 -29 -137 -85
      -137 -48 0 -74 33 -81 102 -12 112 29 177 99 157 17 -5 32 -9 33 -9z" />
    <path d="M2409 1038 c0 -7 -2 -145 -2 -306 l-2 -294 -24 -20 c-18 -14 -37 -18
      -65 -16 l-41 3 -2 -53 -2 -52 32 -1 c18 -1 41 -2 52 -3 44 -2 106 26 132 61
      15 20 29 43 32 52 2 9 6 157 8 329 l4 312 -60 0 c-42 0 -61 -4 -62 -12z" />
    <path d="M2795 913 c-91 -19 -146 -95 -151 -203 -5 -146 62 -236 184 -247 148
      -13 243 71 243 216 1 86 -16 136 -61 181 -52 52 -131 72 -215 53z m129 -126
      c30 -40 30 -153 0 -193 -26 -35 -62 -45 -103 -28 -35 15 -52 49 -54 109 -2
      106 27 148 97 143 29 -2 44 -10 60 -31z" />
    <path d="M4311 910 c-89 -38 -125 -100 -126 -220 0 -74 3 -91 27 -130 16 -28
      43 -55 70 -70 37 -22 55 -25 133 -25 51 0 103 6 121 13 27 12 30 17 30 58 1
      42 -1 45 -20 39 -144 -44 -213 -29 -235 53 l-10 32 145 0 145 0 -2 66 c-2 56
      -7 74 -33 113 -17 25 -44 52 -61 60 -36 18 -152 24 -184 11z m150 -112 c29
      -54 24 -58 -67 -58 -75 0 -84 2 -84 19 0 26 36 69 63 73 32 5 76 -11 88 -34z" />
    <path d="M4707 912 c-16 -3 -17 -20 -15 -225 l3 -222 45 2 c25 1 52 2 60 2 12
      1 15 18 12 98 -3 132 4 178 33 207 26 26 67 39 103 32 13 -3 22 0 23 7 0 7 3
      33 5 60 l5 47 -35 0 c-48 0 -78 -13 -111 -49 -31 -32 -45 -27 -45 15 0 17 -7
      23 -32 26 -18 2 -41 2 -51 0z" />
  </g>
</svg>
